<svg xmlns="http://www.w3.org/2000/svg" viewBox="0 0 32 32">
  <defs>
    <linearGradient id="g" x1="0%" y1="0%" x2="100%" y2="100%">
      <stop offset="0%" stop-color="#f15019"/>
      <stop offset="100%" stop-color="#c73d0a"/>
    </linearGradient>
  </defs>
  <!-- Orange rounded square background (matches navbar logo) -->
  <rect width="32" height="32" rx="8" fill="url(#g)"/>
  <!-- Lucide Plane icon, rotated -45deg around center, scaled to fit -->
  <g transform="translate(16,16) rotate(-45) scale(0.55) translate(-12,-12)">
    <path
      d="M17.8 19.2 16 11l3.5-3.5C21 6 21.5 4 21 3c-1-.5-3 0-4.5 1.5L13 8 4.8 6.2c-.5-.1-.9.1-1.1.5l-.3.5c-.2.5-.1 1 .3 1.3L9 12l-2 3H4l-1 1 3 2 2 3 1-1v-3l3-2 3.5 5.3c.3.4.8.5 1.3.3l.5-.2c.4-.3.6-.7.5-1.2z"
      fill="white"
      stroke="none"
    />
  </g>
</svg>
